Coordinates
version=1
nRows=15
nColumns=63
inDegrees=yes

Units are S.I. units (second, meters, Newtons, ...)
If the header above contains a line with 'inDegrees', this indicates whether rotational values are in degrees (yes) or radians (no).

endheader
time	pelvis_tilt	pelvis_list	pelvis_rotation	pelvis_tx	pelvis_ty	pelvis_tz	hip_flexion_r	hip_adduction_r	hip_rotation_r	knee_angle_r	knee_angle_r_beta	ankle_angle_r	subtalar_angle_r	mtp_angle_r	hip_flexion_l	hip_adduction_l	hip_rotation_l	knee_angle_l	knee_angle_l_beta	ankle_angle_l	subtalar_angle_l	mtp_angle_l	L5_S1_Flex_Ext	L5_S1_Lat_Bending	L5_S1_axial_rotation	L4_L5_Flex_Ext	L4_L5_Lat_Bending	L4_L5_axial_rotation	L3_L4_Flex_Ext	L3_L4_Lat_Bending	L3_L4_axial_rotation	L2_L3_Flex_Ext	L2_L3_Lat_Bending	L2_L3_axial_rotation	L1_L2_Flex_Ext	L1_L2_Lat_Bending	L1_L2_axial_rotation	L1_T12_Flex_Ext	L1_T12_Lat_Bending	L1_T12_axial_rotation	Abs_r3	Abs_r2	Abs_r1	Abs_t1	Abs_t2	neck_flexion	neck_bending	neck_rotation	arm_flex_r	arm_add_r	arm_rot_r	elbow_flex_r	pro_sup_r	wrist_flex_r	wrist_dev_r	arm_flex_l	arm_add_l	arm_rot_l	elbow_flex_l	pro_sup_l	wrist_flex_l	wrist_dev_l
4.346939	-1.622705	-6.353545	94.713303	0.213328	0.827167	0.655025	-6.563568	-0.917734	-6.763443	1.631634	0.028477	29.855157	2.355149	0.000000	-2.662896	0.499478	15.453754	5.431827	0.094803	28.197787	-5.130790	0.000000	0.132650	0.108053	1.119058	0.246345	0.143710	1.188999	0.217931	0.262719	1.188999	0.151606	0.262719	0.979175	0.123179	0.220341	0.909234	0.075796	0.167373	0.839293	0.947508	1.222313	6.223862	0.000000	0.000000	27.479730	-5.947240	9.712622	-0.346992	-17.019412	91.977231	11.808113	8.596879	-5.917718	-6.147204	-4.584430	-21.032682	22.437378	104.251189	89.267722	7.885218	22.294633
4.367347	-1.540636	-6.192263	93.975227	0.214090	0.827527	0.654744	-6.661720	-0.893722	-5.970938	1.664638	0.029053	29.643442	2.302333	0.000000	-3.157945	0.452534	16.115389	4.915113	0.085785	27.639721	-6.859679	0.000000	0.123763	0.128178	1.243712	0.229841	0.170477	1.321444	0.203331	0.311653	1.321444	0.141449	0.311653	1.088248	0.114927	0.261381	1.010516	0.070718	0.198548	0.932784	0.884029	1.449978	6.917150	0.000000	0.000000	27.380330	-6.102127	9.739907	-0.743022	-17.376166	90.341218	12.211929	9.085355	-5.746147	-5.988568	-5.792557	-20.344803	19.927712	101.374335	89.260259	4.226487	22.729062
4.387755	-1.444257	-6.038844	93.276439	0.214815	0.827943	0.654594	-6.740198	-0.856421	-5.236291	1.703449	0.029731	29.431603	2.262154	0.000000	-3.600530	0.385728	16.602818	4.448430	0.077640	27.120600	-8.350969	0.000000	0.113229	0.150818	1.348883	0.210277	0.200588	1.433188	0.186024	0.366700	1.433188	0.129409	0.366700	1.180273	0.105144	0.307549	1.095967	0.064699	0.233618	1.011662	0.808782	1.706087	7.502082	0.000000	0.000000	27.288083	-6.231889	9.852202	-1.003181	-17.691890	90.044014	12.461931	9.838990	-5.830543	-5.766191	-7.044736	-19.698097	17.301054	98.627349	89.255556	0.315806	23.542383
4.408163	-1.327793	-5.900870	92.677722	0.215428	0.828381	0.654551	-6.801196	-0.791426	-4.618274	1.740532	0.030378	29.238592	2.239071	0.000000	-3.967020	0.288467	16.943883	4.058770	0.070839	26.671446	-9.548297	0.000000	0.102286	0.176272	1.425291	0.189955	0.234441	1.514371	0.168045	0.428587	1.514371	0.116902	0.428587	1.247129	0.094983	0.359453	1.158049	0.058446	0.273045	1.068968	0.730617	1.994020	7.927039	0.000000	0.000000	27.218747	-6.298178	10.121709	-1.125078	-17.962850	91.282062	12.535202	10.382124	-6.044390	-5.538209	-8.337130	-19.088568	14.543735	96.125750	89.257378	-3.327959	24.717001
4.428571	-1.203934	-5.796347	92.201449	0.215885	0.828823	0.654607	-6.834889	-0.710904	-4.154864	1.765584	0.030815	29.069104	2.265776	0.000000	-4.241483	0.175120	17.103428	3.743097	0.065329	26.290958	-10.376631	0.000000	0.093624	0.202887	1.471993	0.173870	0.269840	1.563992	0.153816	0.493299	1.563992	0.107003	0.493299	1.287994	0.086940	0.413727	1.195994	0.053497	0.314272	1.103995	0.668750	2.295098	8.186782	0.000000	0.000000	27.177078	-6.378787	10.474384	-1.191586	-18.185742	93.292485	12.455789	10.801092	-6.274506	-5.253881	-9.689791	-18.527383	11.645438	93.913498	89.273021	-6.093658	25.992869
4.448980	-1.056837	-5.716399	91.829980	0.216269	0.829233	0.654672	-6.852215	-0.593811	-3.839693	1.782098	0.031103	28.936806	2.370179	0.000000	-4.428545	0.024315	17.021726	3.533479	0.061671	26.017854	-10.797833	0.000000	0.086898	0.231568	1.489933	0.161379	0.307986	1.583053	0.142765	0.563035	1.583053	0.099316	0.563035	1.303691	0.080694	0.472214	1.210570	0.049654	0.358700	1.117449	0.620706	2.619548	8.286558	0.000000	0.000000	27.161466	-6.465181	10.905929	-1.218423	-18.344200	96.021679	12.211825	10.969430	-6.470908	-4.938004	-11.160829	-18.088663	8.683692	92.139273	89.301342	-7.897197	27.318852
4.469388	-0.908722	-5.668645	91.577379	0.216484	0.829612	0.654789	-6.841555	-0.465827	-3.674157	1.799982	0.031416	28.839798	2.525471	0.000000	-4.542445	-0.122205	16.954486	3.383527	0.059054	25.781640	-11.109717	0.000000	0.081941	0.261258	1.481133	0.152173	0.347473	1.573704	0.134621	0.635223	1.573704	0.093651	0.635223	1.295991	0.076091	0.532757	1.203420	0.046821	0.404689	1.110850	0.585298	2.955402	8.237616	0.000000	0.000000	27.186837	-6.622945	11.445199	-1.216693	-18.537011	98.486988	12.014798	11.091828	-6.526999	-4.651222	-12.705613	-17.769728	5.734086	90.823404	89.331006	-8.487428	28.603900
4.489796	-0.749777	-5.642578	91.413946	0.216574	0.829942	0.654871	-6.822230	-0.317732	-3.636682	1.811323	0.031614	28.770350	2.743331	0.000000	-4.615380	-0.276050	16.934444	3.270428	0.057080	25.574586	-11.389471	0.000000	0.078536	0.292629	1.453839	0.145850	0.389196	1.544704	0.129028	0.711497	1.544704	0.089759	0.711497	1.272109	0.072929	0.596728	1.181244	0.044876	0.453282	1.090379	0.560978	3.310273	8.085817	0.000000	0.000000	27.241296	-6.772610	12.078216	-1.266469	-18.744447	100.455378	11.852822	10.937159	-6.413720	-4.381420	-14.324679	-17.567092	2.834293	89.999346	89.362165	-7.840332	29.801973
4.510204	-0.581222	-5.618214	91.306488	0.216587	0.830236	0.654894	-6.817533	-0.151433	-3.594306	1.812275	0.031630	28.707868	2.887896	0.000000	-4.684933	-0.435234	16.991540	3.170740	0.055340	25.367317	-11.722603	0.000000	0.074305	0.325552	1.421655	0.137992	0.432984	1.510509	0.122076	0.791547	1.510509	0.084923	0.791547	1.243948	0.069000	0.663866	1.155095	0.042458	0.504280	1.066242	0.530754	3.682710	7.906821	0.000000	0.000000	27.302017	-6.934051	12.744940	-1.422527	-18.968220	101.484586	11.757854	10.632527	-6.185041	-4.090418	-15.946789	-17.504225	0.118903	89.671010	89.390705	-6.184509	30.908682
4.530612	-0.402545	-5.592455	91.241136	0.216560	0.830495	0.654851	-6.825341	0.029538	-3.602837	1.814070	0.031661	28.662949	3.045621	0.000000	-4.759096	-0.601617	17.110056	3.075146	0.053671	25.166115	-12.098457	0.000000	0.068900	0.359505	1.388554	0.127955	0.478142	1.475338	0.113196	0.874101	1.475338	0.078746	0.874101	1.214984	0.063981	0.733103	1.128200	0.039370	0.556873	1.041415	0.492147	4.066793	7.722719	0.000000	0.000000	27.347049	-7.052967	13.446430	-1.663568	-19.183574	102.031174	11.659354	10.137989	-5.879792	-3.814497	-17.535617	-17.556685	-2.346778	89.862509	89.413598	-3.878484	31.972412
4.551020	-0.213546	-5.558243	91.209303	0.216521	0.830737	0.654770	-6.846210	0.221859	-3.738988	1.831732	0.031970	28.648151	3.321701	0.000000	-4.824936	-0.778783	17.105563	3.020872	0.052724	25.038420	-12.288747	0.000000	0.061261	0.393880	1.354971	0.113768	0.523861	1.439657	0.100646	0.957681	1.439657	0.070015	0.957681	1.185600	0.056887	0.803201	1.100914	0.035004	0.610121	1.016228	0.437581	4.455654	7.535944	0.000000	0.000000	27.345969	-7.103096	14.137890	-1.943430	-19.357696	102.670203	11.453318	9.655330	-5.558915	-3.579324	-19.063723	-17.646014	-4.576617	90.544060	89.428560	-1.120480	33.012827
4.571429	-0.037951	-5.517143	91.192426	0.216492	0.830931	0.654661	-6.884847	0.401296	-3.833970	1.849264	0.032276	28.632363	3.505542	0.000000	-4.907052	-0.941717	17.130880	2.952982	0.051539	24.928166	-12.495595	0.000000	0.052351	0.424959	1.333385	0.097221	0.565195	1.416721	0.086007	1.033245	1.416721	0.059832	1.033245	1.166712	0.048613	0.866576	1.083375	0.029913	0.658261	1.000039	0.373937	4.807221	7.415887	0.000000	0.000000	27.275992	-7.043037	14.756906	-2.309635	-19.487734	103.136080	11.172926	9.368788	-5.273827	-3.398447	-20.388509	-17.758502	-6.393550	91.635188	89.431677	1.468961	33.962235
4.591837	0.134231	-5.458906	91.176251	0.216502	0.831082	0.654551	-6.941100	0.576138	-3.946634	1.880434	0.032820	28.644605	3.698304	0.000000	-4.999204	-1.101061	17.098019	2.904932	0.050701	24.889371	-12.624366	0.000000	0.041115	0.453554	1.318494	0.076355	0.603227	1.400900	0.067548	1.102772	1.400900	0.046991	1.102772	1.153683	0.038180	0.924888	1.071277	0.023493	0.702556	0.988871	0.293682	5.130699	7.333070	0.000000	0.000000	27.133562	-6.906142	15.280762	-2.704251	-19.567359	103.739120	10.787073	9.370825	-5.027187	-3.254331	-21.483250	-17.806744	-7.872431	92.973405	89.414327	4.062420	34.743257
4.612245	0.290885	-5.387963	91.117091	0.216598	0.831163	0.654421	-7.008123	0.731371	-3.974399	1.912605	0.033381	28.686107	3.831177	0.000000	-5.126718	-1.241856	17.083095	2.822308	0.049259	24.880463	-12.833156	0.000000	0.029529	0.477734	1.318012	0.054837	0.635386	1.400387	0.048512	1.161563	1.400387	0.033748	1.161563	1.153260	0.027420	0.974196	1.070885	0.016873	0.740010	0.988509	0.210919	5.404225	7.330386	0.000000	0.000000	26.923584	-6.707092	15.668110	-3.123559	-19.595450	104.545820	10.323937	9.410788	-4.806879	-3.157906	-22.264456	-17.823255	-8.826017	94.417393	89.370739	6.113783	35.175107
4.632653	0.428644	-5.303618	91.044728	0.216745	0.831177	0.654328	-7.077845	0.865484	-4.067970	1.953448	0.034094	28.797919	4.065270	0.000000	-5.250821	-1.364019	16.903470	2.775027	0.048433	25.001476	-12.828877	0.000000	0.017335	0.496629	1.323892	0.032193	0.660516	1.406635	0.028480	1.207503	1.406635	0.019812	1.207503	1.158405	0.016097	1.012726	1.075662	0.009905	0.769278	0.992919	0.123822	5.617965	7.363088	0.000000	0.000000	26.668999	-6.482141	15.885950	-3.577130	-19.569836	105.066911	9.832067	9.556243	-4.604648	-3.108745	-22.718805	-17.774403	-9.320316	95.846807	89.291047	7.804342	35.330728
